<svg width="253" height="48" viewBox="0 0 253 48" fill="none" xmlns="http://www.w3.org/2000/svg">
<path d="M0.0944441 29.2924C0.0944441 25.7382 0.792592 22.586 2.18889 19.8357C3.6275 17.0854 5.57385 14.9698 8.02794 13.4889C10.482 12.008 13.2112 11.2675 16.2153 11.2675C18.5002 11.2675 20.6792 11.7753 22.7525 12.7907C24.8258 13.7639 26.476 15.0756 27.703 16.7258V0.0336777H36.7155V47H27.703V41.7956C26.6029 43.5304 25.0585 44.9267 23.0699 45.9845C21.0812 47.0423 18.7752 47.5712 16.1518 47.5712C13.19 47.5712 10.482 46.8096 8.02794 45.2864C5.57385 43.7631 3.6275 41.6264 2.18889 38.8761C0.792592 36.0835 0.0944441 32.8889 0.0944441 29.2924ZM27.7665 29.4194C27.7665 27.2615 27.3434 25.4209 26.4971 23.8976C25.6509 22.3321 24.5085 21.1474 23.0699 20.3434C21.6313 19.4972 20.0869 19.0741 18.4367 19.0741C16.7865 19.0741 15.2633 19.476 13.867 20.28C12.4707 21.0839 11.3283 22.2686 10.4397 23.8342C9.59349 25.3574 9.17037 27.1768 9.17037 29.2924C9.17037 31.408 9.59349 33.2698 10.4397 34.8776C11.3283 36.4432 12.4707 37.649 13.867 38.4953C15.3056 39.3415 16.8288 39.7646 18.4367 39.7646C20.0869 39.7646 21.6313 39.3627 23.0699 38.5588C24.5085 37.7125 25.6509 36.5278 26.4971 35.0045C27.3434 33.439 27.7665 31.5773 27.7665 29.4194ZM55.4651 47.5712C52.0802 47.5712 49.0337 46.8308 46.3258 45.3498C43.6178 43.8266 41.481 41.6898 39.9155 38.9396C38.3923 36.1893 37.6306 33.0159 37.6306 29.4194C37.6306 25.8228 38.4134 22.6494 39.979 19.8992C41.5868 17.1489 43.7659 15.0333 46.5162 13.5524C49.2664 12.0291 52.3341 11.2675 55.719 11.2675C59.104 11.2675 62.1716 12.0291 64.9219 13.5524C67.6722 15.0333 69.8301 17.1489 71.3956 19.8992C73.0035 22.6494 73.8074 25.8228 73.8074 29.4194C73.8074 33.0159 72.9823 36.1893 71.3321 38.9396C69.7243 41.6898 67.5241 43.8266 64.7315 45.3498C61.9812 46.8308 58.8924 47.5712 55.4651 47.5712ZM55.4651 39.8281C57.073 39.8281 58.5751 39.4473 59.9714 38.6857C61.41 37.8818 62.5524 36.697 63.3986 35.1315C64.2449 33.5659 64.668 31.6619 64.668 29.4194C64.668 26.0767 63.7795 23.5168 62.0024 21.7397C60.2676 19.9203 58.1308 19.0106 55.5921 19.0106C53.0534 19.0106 50.9166 19.9203 49.1818 21.7397C47.4893 23.5168 46.6431 26.0767 46.6431 29.4194C46.6431 32.762 47.4682 35.343 49.1183 37.1625C50.8108 38.9396 52.9264 39.8281 55.4651 39.8281ZM94.2682 11.331C98.4571 11.331 101.842 12.6638 104.423 15.3295C107.004 17.9528 108.295 21.634 108.295 26.3729V47H99.4091V27.5788C99.4091 24.7862 98.711 22.6494 97.3147 21.1685C95.9184 19.6453 94.0143 18.8837 91.6026 18.8837C89.1485 18.8837 87.2021 19.6453 85.7635 21.1685C84.3672 22.6494 83.6691 24.7862 83.6691 27.5788V47H74.7835V11.8387H83.6691V16.218C84.8538 14.6948 86.3559 13.51 88.1753 12.6638C90.037 11.7753 92.068 11.331 94.2682 11.331ZM126.816 47.5712C123.431 47.5712 120.384 46.8308 117.676 45.3498C114.968 43.8266 112.832 41.6898 111.266 38.9396C109.743 36.1893 108.981 33.0159 108.981 29.4194C108.981 25.8228 109.764 22.6494 111.33 19.8992C112.937 17.1489 115.116 15.0333 117.867 13.5524C120.617 12.0291 123.685 11.2675 127.07 11.2675C130.455 11.2675 133.522 12.0291 136.272 13.5524C139.023 15.0333 141.181 17.1489 142.746 19.8992C144.354 22.6494 145.158 25.8228 145.158 29.4194C145.158 33.0159 144.333 36.1893 142.683 38.9396C141.075 41.6898 138.875 43.8266 136.082 45.3498C133.332 46.8308 130.243 47.5712 126.816 47.5712ZM126.816 39.8281C128.424 39.8281 129.926 39.4473 131.322 38.6857C132.761 37.8818 133.903 36.697 134.749 35.1315C135.595 33.5659 136.019 31.6619 136.019 29.4194C136.019 26.0767 135.13 23.5168 133.353 21.7397C131.618 19.9203 129.481 19.0106 126.943 19.0106C124.404 19.0106 122.267 19.9203 120.532 21.7397C118.84 23.5168 117.994 26.0767 117.994 29.4194C117.994 32.762 118.819 35.343 120.469 37.1625C122.161 38.9396 124.277 39.8281 126.816 39.8281ZM194.878 11.8387L184.596 47H175.012L168.602 22.4379L162.192 47H152.544L142.199 11.8387H151.212L157.431 38.6222L164.159 11.8387H173.552L180.153 38.5588L186.373 11.8387H194.878ZM191.859 29.2924C191.859 25.7382 192.557 22.586 193.953 19.8357C195.392 17.0854 197.317 14.9698 199.729 13.4889C202.183 12.008 204.912 11.2675 207.916 11.2675C210.539 11.2675 212.824 11.7964 214.771 12.8542C216.759 13.912 218.346 15.2448 219.531 16.8527V11.8387H228.48V47H219.531V41.8591C218.388 43.5093 216.802 44.8844 214.771 45.9845C212.782 47.0423 210.476 47.5712 207.853 47.5712C204.891 47.5712 202.183 46.8096 199.729 45.2864C197.317 43.7631 195.392 41.6264 193.953 38.8761C192.557 36.0835 191.859 32.8889 191.859 29.2924ZM219.531 29.4194C219.531 27.2615 219.108 25.4209 218.261 23.8976C217.415 22.3321 216.273 21.1474 214.834 20.3434C213.396 19.4972 211.851 19.0741 210.201 19.0741C208.551 19.0741 207.028 19.476 205.631 20.28C204.235 21.0839 203.093 22.2686 202.204 23.8342C201.358 25.3574 200.935 27.1768 200.935 29.2924C200.935 31.408 201.358 33.2698 202.204 34.8776C203.093 36.4432 204.235 37.649 205.631 38.4953C207.07 39.3415 208.593 39.7646 210.201 39.7646C211.851 39.7646 213.396 39.3627 214.834 38.5588C216.273 37.7125 217.415 36.5278 218.261 35.0045C219.108 33.439 219.531 31.5773 219.531 29.4194ZM240.502 0.0336777V47H231.616V0.0336777H240.502ZM252.625 0.0336777V47H243.739V0.0336777H252.625Z" fill="white"/>
</svg>
