<svg width="64" height="85" viewBox="0 0 64 85" fill="none" xmlns="http://www.w3.org/2000/svg">
<path d="M62.8406 64.4446C61.571 64.4446 60.369 64.3707 59.3451 65.1001C57.1272 66.68 54.9108 68.2646 52.7353 69.9026C49.1564 72.5986 45.4309 75.0116 41.0611 76.2504C37.6066 77.2298 34.0544 77.6385 30.5479 76.9657C26.794 76.2457 23.2214 74.8324 20.3528 72.1647C17.3583 69.3791 14.4771 66.4756 11.5219 63.6476C9.45993 61.6731 7.41682 59.6735 4.94997 58.177C4.8082 58.0905 4.71998 57.6614 4.8082 57.4979C5.36584 56.4603 6.31099 56.0155 7.45305 55.929C9.42842 55.7812 11.2415 56.3943 13.0043 57.163C13.9825 57.5906 14.9072 58.1361 15.8633 58.6329C15.8696 58.625 15.9279 58.5747 15.9185 58.5511C13.8659 53.0805 14.978 47.9133 17.3362 42.8247C20.0866 36.8904 23.3962 31.2783 26.9862 25.8234C29.0167 22.7376 31.1433 19.7162 33.2321 16.6696C33.4211 16.3929 33.6464 16.1414 33.9867 15.7122C33.9867 16.1634 33.9977 16.4291 33.9851 16.6932C33.6858 22.5395 34.7507 28.0934 37.8744 33.0971C39.07 35.0118 40.6216 36.7175 42.1039 38.4357C44.5913 41.3187 47.0424 44.2112 48.5389 47.7703C49.4194 49.8626 49.8463 52.0178 49.4509 54.4214C54.2759 54.2674 59.0521 54.1149 64 53.9561C63.7795 52.6797 63.6235 51.4991 63.3652 50.3405C62.2089 45.1419 59.7342 40.5579 56.3254 36.5493C52.4266 31.9621 48.2742 27.5904 44.2242 23.1306C40.6563 19.2021 37.3073 15.118 34.9665 10.3077C33.3865 7.05204 32.4004 3.62349 31.8994 0C31.8443 0.402435 31.7908 0.806442 31.734 1.20888C30.937 6.86654 28.563 11.853 25.255 16.4511C22.0005 20.9753 18.1223 24.9557 14.3275 29.0115C10.9958 32.5721 7.73502 36.1924 5.08387 40.3079C1.98534 45.1183 0.0855802 50.3169 0.00209164 56.0909C-0.0609186 60.4328 1.30483 64.399 3.40464 68.1152C7.76968 75.8401 14.1306 81.1724 22.6968 83.7284C26.657 84.9106 30.7227 85.1747 34.8436 84.9012C39.3157 84.6041 43.6146 83.6483 47.6599 81.7116C54.9895 78.2044 60.0871 72.6741 62.7177 64.9492C62.7587 64.8297 62.7792 64.7008 62.8406 64.4446Z" fill="white"/>
<path d="M40.7512 63.8551C36.9942 63.7388 33.4042 63.635 29.8142 63.5155C27.9144 63.4511 26.9881 62.5723 26.829 60.8007C26.766 60.0964 27.0779 59.5698 27.623 59.2994C28.8359 58.6973 30.0599 58.0119 31.3595 57.7164C33.6499 57.1976 35.997 56.9147 38.3284 56.5877C41.3592 56.1617 44.4451 56.0626 47.3546 54.9418C47.9107 54.728 48.1155 54.4529 48.1864 53.8917C48.5707 50.8042 47.5815 48.0517 45.8896 45.5946C44.2939 43.2759 42.5706 41.0059 40.6393 38.9654C36.3814 34.4679 33.872 29.1922 32.9347 23.1227C32.7835 22.1418 32.6906 21.1514 32.5504 20.0038C32.1912 20.5069 31.8919 20.9062 31.6099 21.318C26.9645 28.1107 22.5034 35.0134 18.9827 42.4726C17.8076 44.9611 16.6182 47.4842 16.3158 50.2383C15.8149 54.7956 16.5647 59.0306 20.2555 62.2501C22.3774 64.1003 24.9135 65.0592 27.6592 65.446C31.8951 66.0418 36.0821 65.96 40.0864 64.1884C40.2565 64.1129 40.4156 64.0233 40.7512 63.8551ZM22.9933 45.7046C20.7864 49.3171 20.1736 53.1497 21.3456 57.3155C17.932 55.514 19.0504 48.1161 22.9933 45.7046Z" fill="white"/>
</svg>
